<?xml version="1.0" encoding="UTF-8"?>
<svg id="Layer_1" data-name="Layer 1" xmlns="http://www.w3.org/2000/svg" viewBox="0 0 1036.95 530.29">
  <defs>
    <style>
      .cls-1 {
        fill: #e3529d;
        fill-rule: evenodd;
        stroke-width: 0px;
      }
    </style>
  </defs>
  <path class="cls-1" d="m0,224.73h61.39s32.56,2.92,33.24,37.79c.67,34.87-33.16,38.98-33.16,38.98h-.15s-46.56,0-46.56,0v43.25H0v-120.04h0Zm1015.49-36.05c5.92,0,11.28,2.4,15.17,6.29h0c3.88,3.89,6.29,9.25,6.29,15.17s-2.4,11.29-6.29,15.17c-3.88,3.88-9.25,6.29-15.17,6.29s-11.28-2.41-15.17-6.29h0s0,0,0,0c-3.88-3.89-6.29-9.25-6.29-15.17s2.4-11.29,6.29-15.17c3.88-3.88,9.25-6.29,15.17-6.29h0Zm-9.13,32.4h3.19v-10.67h3.68c.82,0,1.41.04,1.77.11.49.12.98.34,1.45.64.48.31,1.01.84,1.62,1.6.6.77,1.36,1.87,2.29,3.32l3.18,5h3.97l-4.15-6.54c-.82-1.28-1.7-2.35-2.63-3.2-.44-.39-1.07-.79-1.92-1.2,2.3-.32,4-1.06,5.1-2.22,1.1-1.17,1.66-2.61,1.66-4.31,0-1.32-.33-2.53-.99-3.62-.67-1.09-1.56-1.85-2.67-2.28-1.11-.43-2.74-.65-4.88-.65h-10.64v24.01h0Zm3.19-13.42h6.82c1.45,0,2.58-.15,3.4-.45.82-.3,1.44-.78,1.86-1.44.43-.66.64-1.38.64-2.15,0-1.14-.41-2.07-1.23-2.81-.82-.73-2.12-1.09-3.89-1.09h-7.59v7.95h0Zm18.18-9.76c-3.13-3.12-7.46-5.06-12.23-5.06s-9.1,1.94-12.23,5.06c-3.13,3.13-5.07,7.45-5.07,12.23s1.93,9.1,5.06,12.23h0c3.12,3.13,7.45,5.07,12.23,5.07s9.1-1.94,12.23-5.07c3.13-3.13,5.06-7.45,5.06-12.23s-1.94-9.1-5.06-12.23h0Zm-175.39,193.59c18.95,5.48,26.68,33.17,17.26,61.83-9.42,28.66-32.43,47.46-51.38,41.97-18.95-5.48-26.68-33.17-17.26-61.83,9.42-28.66,32.43-47.46,51.38-41.97h0Zm139.54-152.01l-.67,28.67s-6.2,3.86-20.29,4.53c-14.08.67-24.98-1.84-24.81,6.2.17,8.05,38.73,17.86,48.37,32.44,9.64,14.59,6.28,34.62-3.27,43.25-9.56,8.63-23.3,16.52-51.13,11.49-27.83-5.03-27.66-29.68-22.63-37.39,5.03-7.71,17.1-10.06,26.49-4.02,9.39,6.04-6.04,28.5,12.41,29.51,18.44,1.01,22.8-26.49,8.05-40.57-14.75-14.08-42.08-23.97-49.12-30.18-7.04-6.2-7.71-15.76-4.53-21.29s15.98-11.06,46.27-15.26c30.29-4.19,34.87-7.38,34.87-7.38h0Zm-114.24-123.02s.45-11.43-1.35-18.95c-1.81-7.52-8.12-6.01-4.21-23.76,3.91-17.74,14.28-26.77,22.86-25.26,8.57,1.5,8.12,7.82,10.52,18.04,2.41,10.22,9.93,12.93,16.54,8.72,6.62-4.21,12.78-9.32,21.05-5.56,8.27,3.76,3.31,17.6,10.53,22.1,7.22,4.51,11.35-.15,20.37-2.25,9.02-2.1,15.11,8.42,12.71,22.56-2.41,14.13-4.81,23.31-13.23,25.41-8.42,2.11-8.57-.38-19.55,5.11-10.98,5.49-18.19,19.1-33.53,16.99-15.34-2.1-10.22-9.51-21.84-12.59-11.61-3.08-12.29-.04-17.1-4.4-4.81-4.36-3.76-26.16-3.76-26.16h0Zm-13.98-8.72c-5.61-4.96-16.53-1.79-24.39,7.09-7.86,8.88-9.69,20.1-4.08,25.07,5.61,4.97,16.53,1.79,24.39-7.08,7.86-8.88,9.69-20.1,4.08-25.07h0Zm110.19,45.53c-8.54-2.47-18.92,6-23.16,18.92-4.25,12.92-.76,25.4,7.78,27.87,8.54,2.47,18.92-6,23.16-18.92,4.25-12.92.76-25.4-7.78-27.87h0Zm-51.71,19.02c8.71,1.78,13.19,13.93,10,27.16-3.19,13.22-12.85,22.5-21.57,20.72-8.71-1.78-13.19-13.93-9.99-27.16,3.19-13.22,12.85-22.5,21.57-20.72h0Zm-46.09-15.82c-9.31-1.91-19.32,8.49-22.35,23.24-3.03,14.75,2.07,28.25,11.38,30.17,9.31,1.91,19.32-8.49,22.35-23.24,3.03-14.75-2.07-28.25-11.38-30.17h0Zm-227.31,144.12c-5.38,9.13-19.67,32.59-25.74,34.62-7.55,2.51-15.09-1.34-14.42-19.78.67-18.44-2.35-33.53,4.7-39.23,7.04-5.7,9.22-9.73,6.87-14.42s-13.07-13.41-13.07-13.41c0,0-4.69-4.86-9.05-3.52-4.36,1.34-2.85,3.69-5.87,7.21-3.02,3.52-5.53,1.34-8.05-6.71s-25.32-19.95-45.44-2.18c-20.12,17.77-23.64,42.41-23.81,72.59-.17,30.18,14.59,60.19,38.73,56.83,24.14-3.35,36.38-35.37,36.38-35.37,0,0,6.03,20.45,20.45,20.79,14.42.34,25.82-17.77,32.53-26.49,1.5-1.95,3.42-4.56,5.5-7.43.27,15.08,1.89,36.1,8.55,42.14,10.73,9.72,12.24,2.94,38.14,9.81,25.9,6.87,14.5,23.39,48.7,28.08,34.2,4.7,50.3-25.65,74.77-37.89,24.48-12.24,24.81-6.71,43.59-11.4,18.78-4.7,24.14-25.15,29.51-56.67,5.36-31.52-8.21-54.99-28.33-50.3-20.12,4.69-29.34,15.09-45.44,5.03s-5.03-40.91-23.47-49.29c-18.44-8.38-32.19,3.02-46.94,12.41-14.75,9.39-31.52,3.35-36.88-19.45-5.36-22.8-4.36-36.88-23.47-40.24s-42.25,16.77-50.97,56.33c-8.72,39.57,5.37,36.21,9.39,52.98,2.68,11.15,3.13,26.16,3.13,34.96h0Zm-76.55-19.03c5.62,2.34,7.44,8.57,6.97,18.11-.8,16.1-8.91,37.38-21.22,32.52-7.8-3.08-8.22-17.27-4.86-32.69,3.35-15.42,13.5-20.28,19.11-17.94h0Zm72.89,106.76c20.35,5.55,29.72,36.17,20.94,68.39-8.79,32.22-32.41,53.85-52.76,48.29-20.35-5.55-29.72-36.17-20.94-68.39,8.79-32.22,32.41-53.84,52.76-48.29h0Zm100.44,40.36c18.3,7.37,23.19,35.69,10.92,63.26-12.27,27.56-37.06,43.94-55.37,36.56-18.3-7.37-23.19-35.69-10.92-63.26,12.27-27.56,37.06-43.93,55.37-36.56h0Zm-358.2-118.72l2.14-71.55-5.66.47c-13.55,1.12-22.15-.57-23.1-5.06-2.03-9.68,2.58-11.92,17.73-13.72,3.9-.46,7.76-.93,11.61-1.41l3.31-110.59s-1.01-6.54,5.7-4.02c6.71,2.51,27.66,20.45,29.34,24.31.71,1.63-3.51,40.99-8.95,86.34,42.37-6.28,82.54-15.13,123.96-32.51,149.14-62.57,70.29-133.88-45.6-144.18-103.82-9.23-169.67,7.38-199.17,27.5-29.51,20.12-20.12,65.05-26.15,70.41-6.04,5.37-14.75,5.03-25.82-2.68-11.06-7.71-52.98-79.13,38.22-111.66C376.08-10.9,490.41.17,544.4,10.56c53.99,10.4,156.59,61.03,102.94,133.45-53.65,72.43-210.57,90.52-218.79,91.2l-11.72.97c-6.96,56.46-14.88,114.48-17.12,117.06-4.36,5.03-7.38,3.35-10.73-1.34-3.35-4.69-1.68-41.92-1.68-41.92h0Zm-231.97-52.22v88.35h12.32v-53.59c5.58-14.12,14.22-25.57,32.25-25.41,19.45.17,22.82,17.69,22.82,17.69v.04s0,61.27,0,61.27h12.32v-62.57s-.52-11.74-7.56-20.12c-7.04-8.38-21.55-12.16-37.56-8.8-11.28,2.36-18.81,9.96-22.28,14.25v-11.11h-12.32Zm107.63-45.81v134.16h12.32v-40.48h15.29l30.16,39.89h19.45l-36.21-46.44,35.21-43.42h-17.1l-29.36,36.72h-17.44v-80.43h-12.32Zm-139.36,6.41c5.05,0,9.14,4.09,9.14,9.14s-4.09,9.14-9.14,9.14-9.14-4.09-9.14-9.14,4.09-9.14,9.14-9.14h0Zm-6.16,39.4h12.32v88.35h-12.32v-88.35h0Zm-56.1-22.4h-.03s-46.56,0-46.56,0v55.51h46.62c5.84-1.77,21.35-7.69,20.93-28.35-.42-20.66-16.29-26.12-20.96-27.16Z"/>
</svg>