<svg width="166" height="166" viewBox="0 0 166 166" fill="none" xmlns="http://www.w3.org/2000/svg">
<circle cx="83" cy="83" r="83" fill="white"/>
<path d="M160 82.5C160 125.302 125.302 160 82.5 160C39.6979 160 5 125.302 5 82.5C5 39.6979 39.6979 5 82.5 5C125.302 5 160 39.6979 160 82.5Z" fill="#E4509E"/>
<path d="M21.338 99V87.8H25.834C26.9967 87.8 27.882 88.072 28.49 88.616C29.1087 89.1493 29.418 89.8373 29.418 90.68C29.418 91.384 29.226 91.9493 28.842 92.376C28.4687 92.792 28.01 93.0747 27.466 93.224C28.106 93.352 28.634 93.672 29.05 94.184C29.466 94.6853 29.674 95.272 29.674 95.944C29.674 96.8293 29.354 97.56 28.714 98.136C28.074 98.712 27.1673 99 25.994 99H21.338ZM23.386 92.504H25.53C26.106 92.504 26.5487 92.3707 26.858 92.104C27.1673 91.8373 27.322 91.4587 27.322 90.968C27.322 90.4987 27.1673 90.1307 26.858 89.864C26.5593 89.5867 26.106 89.448 25.498 89.448H23.386V92.504ZM23.386 97.336H25.674C26.282 97.336 26.7513 97.1973 27.082 96.92C27.4233 96.632 27.594 96.232 27.594 95.72C27.594 95.1973 27.418 94.7867 27.066 94.488C26.714 94.1893 26.2393 94.04 25.642 94.04H23.386V97.336ZM31.4318 99V87.8H38.7438V89.448H33.4798V92.52H38.2638V94.12H33.4798V97.352H38.7438V99H31.4318ZM45.7538 99.192C44.6231 99.192 43.6524 98.952 42.8418 98.472C42.0311 97.9813 41.4071 97.304 40.9698 96.44C40.5324 95.5653 40.3138 94.5573 40.3138 93.416C40.3138 92.2747 40.5324 91.2667 40.9698 90.392C41.4071 89.5173 42.0311 88.8347 42.8418 88.344C43.6524 87.8533 44.6231 87.608 45.7538 87.608C47.0978 87.608 48.1964 87.944 49.0498 88.616C49.9138 89.2773 50.4524 90.2107 50.6658 91.416H48.4097C48.2711 90.808 47.9724 90.3333 47.5138 89.992C47.0658 89.64 46.4684 89.464 45.7218 89.464C44.6871 89.464 43.8764 89.816 43.2898 90.52C42.7031 91.224 42.4098 92.1893 42.4098 93.416C42.4098 94.6427 42.7031 95.608 43.2898 96.312C43.8764 97.0053 44.6871 97.352 45.7218 97.352C46.4684 97.352 47.0658 97.192 47.5138 96.872C47.9724 96.5413 48.2711 96.088 48.4097 95.512H50.6658C50.4524 96.664 49.9138 97.5653 49.0498 98.216C48.1964 98.8667 47.0978 99.192 45.7538 99.192ZM57.7266 99.192C56.6066 99.192 55.6253 98.9467 54.7826 98.456C53.9506 97.9653 53.2946 97.288 52.8146 96.424C52.3453 95.5493 52.1106 94.5413 52.1106 93.4C52.1106 92.2587 52.3453 91.256 52.8146 90.392C53.2946 89.5173 53.9506 88.8347 54.7826 88.344C55.6253 87.8533 56.6066 87.608 57.7266 87.608C58.836 87.608 59.812 87.8533 60.6546 88.344C61.4973 88.8347 62.1533 89.5173 62.6226 90.392C63.092 91.256 63.3266 92.2587 63.3266 93.4C63.3266 94.5413 63.092 95.5493 62.6226 96.424C62.1533 97.288 61.4973 97.9653 60.6546 98.456C59.812 98.9467 58.836 99.192 57.7266 99.192ZM57.7266 97.352C58.7933 97.352 59.6413 97 60.2706 96.296C60.9106 95.592 61.2306 94.6267 61.2306 93.4C61.2306 92.1733 60.9106 91.208 60.2706 90.504C59.6413 89.8 58.7933 89.448 57.7266 89.448C56.66 89.448 55.8066 89.8 55.1666 90.504C54.5266 91.208 54.2066 92.1733 54.2066 93.4C54.2066 94.6267 54.5266 95.592 55.1666 96.296C55.8066 97 56.66 97.352 57.7266 97.352ZM65.1349 99V87.8H67.5669L71.1349 94.904L74.6549 87.8H77.0869V99H75.0389V91.272L71.9189 97.4H70.3029L67.1829 91.272V99H65.1349ZM79.2599 99V87.8H86.5719V89.448H81.3079V92.52H86.0919V94.12H81.3079V97.352H86.5719V99H79.2599ZM91.6024 99L95.6984 87.8H98.0024L102.098 99H99.9224L99.0264 96.408H94.6584L93.7464 99H91.6024ZM95.2184 94.808H98.4664L96.8344 90.152L95.2184 94.808ZM107.354 99V87.8H111.498C112.394 87.8 113.135 87.9493 113.722 88.248C114.308 88.5467 114.746 88.9573 115.034 89.48C115.322 90.0027 115.466 90.5893 115.466 91.24C115.466 91.8587 115.327 92.4293 115.05 92.952C114.772 93.464 114.34 93.88 113.754 94.2C113.167 94.5093 112.415 94.664 111.498 94.664H109.402V99H107.354ZM109.402 93H111.37C112.084 93 112.596 92.8453 112.906 92.536C113.226 92.216 113.386 91.784 113.386 91.24C113.386 90.6853 113.226 90.2533 112.906 89.944C112.596 89.624 112.084 89.464 111.37 89.464H109.402V93ZM117.072 99V87.8H119.12V97.4H124.08V99H117.072ZM129.721 99.192C128.899 99.192 128.158 99.032 127.497 98.712C126.835 98.3813 126.307 97.8853 125.913 97.224C125.529 96.5627 125.337 95.7253 125.337 94.712V87.8H127.385V94.728C127.385 95.6027 127.593 96.2533 128.009 96.68C128.435 97.1067 129.022 97.32 129.769 97.32C130.505 97.32 131.086 97.1067 131.513 96.68C131.939 96.2533 132.153 95.6027 132.153 94.728V87.8H134.201V94.712C134.201 95.7253 133.998 96.5627 133.593 97.224C133.187 97.8853 132.643 98.3813 131.961 98.712C131.289 99.032 130.542 99.192 129.721 99.192ZM140.115 99.192C139.294 99.192 138.568 99.0533 137.939 98.776C137.31 98.488 136.814 98.0827 136.451 97.56C136.088 97.0267 135.902 96.3813 135.891 95.624H138.051C138.072 96.1467 138.259 96.5893 138.611 96.952C138.974 97.304 139.47 97.48 140.099 97.48C140.643 97.48 141.075 97.352 141.395 97.096C141.715 96.8293 141.875 96.4773 141.875 96.04C141.875 95.5813 141.731 95.224 141.443 94.968C141.166 94.712 140.792 94.504 140.323 94.344C139.854 94.184 139.352 94.0133 138.819 93.832C137.955 93.5333 137.294 93.1493 136.835 92.68C136.387 92.2107 136.163 91.5867 136.163 90.808C136.152 90.1467 136.307 89.5813 136.627 89.112C136.958 88.632 137.406 88.264 137.971 88.008C138.536 87.7413 139.187 87.608 139.923 87.608C140.67 87.608 141.326 87.7413 141.891 88.008C142.467 88.2747 142.915 88.648 143.235 89.128C143.566 89.608 143.742 90.1787 143.763 90.84H141.571C141.56 90.4453 141.406 90.0987 141.107 89.8C140.819 89.4907 140.414 89.336 139.891 89.336C139.443 89.3253 139.064 89.4373 138.755 89.672C138.456 89.896 138.307 90.2267 138.307 90.664C138.307 91.0373 138.424 91.336 138.659 91.56C138.894 91.7733 139.214 91.9547 139.619 92.104C140.024 92.2533 140.488 92.4133 141.011 92.584C141.566 92.776 142.072 93 142.531 93.256C142.99 93.512 143.358 93.8533 143.635 94.28C143.912 94.696 144.051 95.2347 144.051 95.896C144.051 96.4827 143.902 97.0267 143.603 97.528C143.304 98.0293 142.862 98.4347 142.275 98.744C141.688 99.0427 140.968 99.192 140.115 99.192ZM50.1818 120V108.8H52.6138L56.1818 115.904L59.7018 108.8H62.1338V120H60.0858V112.272L56.9658 118.4H55.3498L52.2298 112.272V120H50.1818ZM64.3068 120V108.8H71.6188V110.448H66.3548V113.52H71.1388V115.12H66.3548V118.352H71.6188V120H64.3068ZM73.5568 120V108.8H75.9888L79.5568 115.904L83.0768 108.8H85.5088V120H83.4608V112.272L80.3408 118.4H78.7248L75.6048 112.272V120H73.5568ZM87.6818 120V108.8H92.1778C93.3404 108.8 94.2258 109.072 94.8338 109.616C95.4524 110.149 95.7618 110.837 95.7618 111.68C95.7618 112.384 95.5698 112.949 95.1858 113.376C94.8124 113.792 94.3538 114.075 93.8098 114.224C94.4498 114.352 94.9778 114.672 95.3938 115.184C95.8098 115.685 96.0178 116.272 96.0178 116.944C96.0178 117.829 95.6978 118.56 95.0578 119.136C94.4178 119.712 93.5111 120 92.3378 120H87.6818ZM89.7298 113.504H91.8738C92.4498 113.504 92.8924 113.371 93.2018 113.104C93.5111 112.837 93.6658 112.459 93.6658 111.968C93.6658 111.499 93.5111 111.131 93.2018 110.864C92.9031 110.587 92.4498 110.448 91.8418 110.448H89.7298V113.504ZM89.7298 118.336H92.0178C92.6258 118.336 93.0951 118.197 93.4258 117.92C93.7671 117.632 93.9378 117.232 93.9378 116.72C93.9378 116.197 93.7618 115.787 93.4098 115.488C93.0578 115.189 92.5831 115.04 91.9858 115.04H89.7298V118.336ZM97.7755 120V108.8H105.088V110.448H99.8235V113.52H104.608V115.12H99.8235V118.352H105.088V120H97.7755ZM107.026 120V108.8H111.138C112.034 108.8 112.77 108.955 113.346 109.264C113.932 109.563 114.37 109.973 114.658 110.496C114.946 111.008 115.09 111.579 115.09 112.208C115.09 112.891 114.908 113.515 114.546 114.08C114.194 114.645 113.639 115.056 112.882 115.312L115.202 120H112.85L110.77 115.584H109.074V120H107.026ZM109.074 114.08H111.01C111.692 114.08 112.194 113.915 112.514 113.584C112.834 113.253 112.994 112.816 112.994 112.272C112.994 111.739 112.834 111.312 112.514 110.992C112.204 110.672 111.698 110.512 110.994 110.512H109.074V114.08Z" fill="white"/>
<g clip-path="url(#clip0_61_34)">
<path fill-rule="evenodd" clip-rule="evenodd" d="M76.1585 53.7038C76.1585 53.7038 76.2566 51.272 75.8642 49.6701C75.4719 48.0703 74.1032 48.389 74.951 44.6142C75.7989 40.8393 78.0503 38.9187 79.9094 39.2374C81.7685 39.5582 81.6704 40.9013 82.1913 43.0786C82.7122 45.2536 84.3446 45.8311 85.7787 44.935C87.2128 44.0388 88.551 42.9502 90.3448 43.7501C92.1385 44.55 91.0618 47.495 92.6289 48.4553C94.1937 49.4156 95.0917 48.4232 97.0489 47.9762C99.006 47.5292 100.327 49.7685 99.8037 52.7777C99.2828 55.7869 98.7598 57.7374 96.9333 58.1865C95.1069 58.6357 95.0742 58.1074 92.6942 59.2751C90.3142 60.4429 88.7472 63.3387 85.4213 62.8917C82.0954 62.4447 83.2048 60.8685 80.6831 60.2119C78.1636 59.5553 78.0176 60.2034 76.9736 59.2751C75.9296 58.3448 76.1585 53.7038 76.1585 53.7038Z" fill="white"/>
<path fill-rule="evenodd" clip-rule="evenodd" d="M73.1269 51.8473C71.9107 50.7908 69.5416 51.4666 67.8373 53.3551C66.1329 55.2458 65.7362 57.6326 66.9524 58.6891C68.1685 59.7456 70.5377 59.0698 72.242 57.1813C73.9464 55.2928 74.343 52.906 73.1269 51.8473Z" fill="white"/>
<path fill-rule="evenodd" clip-rule="evenodd" d="M97.0272 61.5401C95.1746 61.014 92.9254 62.8169 92.0035 65.5673C91.0837 68.3177 91.8378 70.974 93.6904 71.5001C95.543 72.0263 97.7922 70.2233 98.7141 67.4729C99.636 64.7204 98.8798 62.0662 97.0272 61.5401Z" fill="white"/>
<path fill-rule="evenodd" clip-rule="evenodd" d="M85.8093 65.5865C87.6989 65.9651 88.6688 68.5529 87.9779 71.3653C87.2848 74.1799 85.1903 76.154 83.3007 75.7754C81.4111 75.3969 80.4412 72.809 81.1343 69.9944C81.8252 67.1841 83.9197 65.2079 85.8093 65.5865Z" fill="white"/>
<path fill-rule="evenodd" clip-rule="evenodd" d="M75.8142 62.2201C73.7938 61.8138 71.623 64.0274 70.967 67.167C70.311 70.3067 71.416 73.1811 73.4363 73.5875C75.4567 73.9938 77.6275 71.7803 78.2835 68.6428C78.9396 65.5031 77.8346 62.6286 75.8142 62.2201Z" fill="white"/>
</g>
<defs>
<clipPath id="clip0_61_34">
<rect width="34" height="37" fill="white" transform="translate(66 39)"/>
</clipPath>
</defs>
</svg>
