<svg width="23" height="18" viewBox="0 0 23 18" fill="none" xmlns="http://www.w3.org/2000/svg">
<path d="M0.213171 8.95668C0.223245 8.41907 0.656648 7.98566 1.19426 7.97559L18.3855 7.65347L13.5499 2.81784C13.1594 2.42732 13.1594 1.79415 13.5499 1.40363L13.8821 1.07143C14.2726 0.68091 14.9058 0.68091 15.2963 1.07143L22.2929 8.06804C22.6834 8.45856 22.6834 9.09173 22.2929 9.48225L14.9751 16.8001C14.5845 17.1906 13.9514 17.1906 13.5609 16.8001L13.2929 16.5321C12.9024 16.1416 12.9024 15.5084 13.2929 15.1179L18.3402 10.0706L1.22393 10.3913C0.657057 10.402 0.194753 9.93965 0.205375 9.37277L0.213171 8.95668Z" fill="#6A6A6A"/>
</svg>
