<?xml version="1.0" encoding="utf-8"?>
<!-- Generator: Adobe Illustrator 28.2.0, SVG Export Plug-In . SVG Version: 6.00 Build 0)  -->
<svg version="1.1" id="Layer_1" xmlns="http://www.w3.org/2000/svg" xmlns:xlink="http://www.w3.org/1999/xlink" x="0px" y="0px"
	 viewBox="0 0 156 173" style="enable-background:new 0 0 156 173;" xml:space="preserve">
<style type="text/css">
	.st0{fill-rule:evenodd;clip-rule:evenodd;fill:#FFFFFF;}
</style>
<path class="st0" d="M46.61,68.75c0,0,0.45-11.37-1.35-18.86c-1.8-7.48-8.08-5.99-4.19-23.64C44.96,8.6,55.29-0.38,63.82,1.11
	c8.53,1.5,8.08,7.78,10.47,17.96c2.39,10.17,9.88,12.87,16.46,8.68c6.58-4.19,12.72-9.28,20.95-5.54c8.23,3.74,3.29,17.51,10.48,22
	c7.18,4.49,11.3-0.15,20.28-2.24c8.98-2.09,15.04,8.38,12.64,22.45c-2.39,14.07-4.79,23.19-13.17,25.29
	c-8.38,2.1-8.53-0.37-19.45,5.09c-10.92,5.46-18.11,19-33.37,16.91c-15.26-2.09-10.17-9.46-21.74-12.53
	c-11.56-3.07-12.23-0.04-17.02-4.38C45.56,90.45,46.61,68.75,46.61,68.75L46.61,68.75z"/>
<path class="st0" d="M32.7,60.07c-5.58-4.94-16.45-1.78-24.27,7.05c-7.82,8.84-9.64,20-4.06,24.94c5.58,4.94,16.45,1.78,24.27-7.05
	C36.46,76.18,38.28,65.02,32.7,60.07L32.7,60.07z"/>
<path class="st0" d="M142.36,105.39c-8.5-2.46-18.82,5.97-23.05,18.83c-4.22,12.86-0.76,25.28,7.74,27.74
	c8.5,2.46,18.82-5.97,23.05-18.83C154.33,120.26,150.86,107.85,142.36,105.39L142.36,105.39z"/>
<path class="st0" d="M90.89,124.31c8.67,1.77,13.12,13.87,9.95,27.02c-3.18,13.16-12.79,22.39-21.46,20.62
	c-8.67-1.77-13.12-13.87-9.94-27.03C72.61,131.78,82.22,122.54,90.89,124.31L90.89,124.31z"/>
<path class="st0" d="M45.03,108.57c-9.27-1.9-19.23,8.45-22.24,23.13c-3.01,14.68,2.06,28.12,11.33,30.02
	c9.27,1.9,19.23-8.45,22.24-23.12C59.37,123.92,54.3,110.48,45.03,108.57L45.03,108.57z"/>
</svg>
