<svg width="34" height="37" viewBox="0 0 34 37" fill="none" xmlns="http://www.w3.org/2000/svg">
<g clip-path="url(#clip0_185_16)">
<path d="M23.3421 22.2716L23.3421 22.2716L23.3419 22.2761L23.8415 22.2962C23.3419 22.2761 23.3419 22.2761 23.3419 22.2762L23.3419 22.2764L23.3419 22.2769L23.3418 22.2786L23.3416 22.2846L23.3408 22.3068C23.3402 22.3261 23.3393 22.3541 23.3383 22.3901C23.3363 22.462 23.3339 22.5659 23.3324 22.6952C23.3292 22.9536 23.3292 23.3149 23.3418 23.7275C23.3665 24.5441 23.4411 25.5952 23.6501 26.4488L23.6501 26.449C23.7672 26.9262 23.9593 27.261 24.1478 27.5423C24.2034 27.6253 24.2545 27.6983 24.3019 27.7661C24.4225 27.9387 24.5193 28.0772 24.6069 28.2592C24.8204 28.7024 24.9751 29.4331 24.5611 31.2763C24.1531 33.0931 23.4152 34.4261 22.5933 35.2579C21.7679 36.0934 20.8958 36.3932 20.1754 36.2698C19.7691 36.1997 19.5109 36.081 19.3324 35.9404C19.1555 35.8012 19.0219 35.6129 18.9086 35.3441C18.792 35.0671 18.7052 34.7254 18.6126 34.2909C18.5851 34.1618 18.557 34.0239 18.5274 33.8788C18.4607 33.5514 18.3864 33.1872 18.295 32.8051L18.295 32.805C18.0103 31.6163 17.3981 30.7751 16.5687 30.3884C15.7344 29.9994 14.7882 30.1212 13.9563 30.641C13.7919 30.7437 13.6337 30.8454 13.4797 30.9444C12.9246 31.3011 12.425 31.6222 11.8934 31.8269C11.2549 32.0727 10.6123 32.1292 9.85888 31.7932C9.24591 31.5199 9.08149 30.8895 8.92208 29.8795C8.91571 29.8391 8.90932 29.7982 8.90286 29.7568C8.83572 29.3264 8.76021 28.8423 8.6091 28.4081C8.43845 27.9179 8.1551 27.4387 7.63239 27.1184C7.18794 26.8457 6.76776 26.6982 6.34757 26.6543C5.9299 26.6106 5.54367 26.6726 5.17492 26.7746C4.88497 26.8548 4.58414 26.9668 4.28563 27.0779C4.21527 27.1041 4.14504 27.1302 4.07511 27.1559C3.69792 27.2943 3.29815 27.4316 2.83981 27.5363C2.11398 27.7021 1.49747 27.3961 1.07633 26.6686C0.64155 25.9175 0.441231 24.7326 0.688877 23.3079L0.688936 23.3076C0.950499 21.7966 1.20307 20.6193 1.59594 19.7672C1.97647 18.942 2.46159 18.4772 3.18605 18.299C3.79586 18.149 4.16178 18.1179 4.53008 18.0866C4.69361 18.0727 4.85761 18.0588 5.04364 18.0344C5.64843 17.9551 6.30523 17.7727 7.52599 17.1737C8.17167 16.8569 8.75038 16.429 9.29169 15.994C9.48198 15.8411 9.66477 15.6899 9.84463 15.5411C10.1912 15.2544 10.5268 14.9768 10.8841 14.7136C11.9385 13.9368 13.0314 13.4048 14.5121 13.6038C15.3031 13.7101 15.7936 13.8788 16.1273 14.0617C16.4547 14.2411 16.6606 14.4497 16.8689 14.694C16.9064 14.7379 16.9454 14.785 16.9863 14.8345C17.1652 15.0507 17.3806 15.3109 17.6642 15.5425C18.0293 15.8407 18.4999 16.092 19.1909 16.272C20.3274 16.5681 21.0138 16.6106 21.4851 16.6399C21.5574 16.6443 21.6246 16.6485 21.6876 16.6532C21.9147 16.6702 22.0477 16.6925 22.1748 16.7434C22.3021 16.7944 22.4578 16.8884 22.6938 17.0982C22.7488 17.1473 22.8237 17.2486 22.9024 17.4303C22.9792 17.6074 23.0475 17.8319 23.106 18.096C23.2231 18.6244 23.2903 19.2617 23.3263 19.8881C23.3621 20.5114 23.3661 21.1084 23.361 21.5508C23.3585 21.7716 23.3537 21.953 23.3496 22.0786C23.3475 22.1414 23.3456 22.1903 23.3443 22.2231L23.3427 22.2602L23.3422 22.2692L23.3421 22.2712L23.3421 22.2716Z" fill="#E4509E" stroke="white"/>
<path d="M33.2071 19.5832C33.065 20.4394 32.5903 21.4237 31.7915 22.3099C30.993 23.1947 30.0526 23.7786 29.1978 24.0223C28.3347 24.2684 27.636 24.153 27.2012 23.7753C26.7691 23.3991 26.5705 22.7408 26.7136 21.8787C26.8557 21.0225 27.3304 20.0388 28.1292 19.1537C28.9277 18.2689 29.8681 17.685 30.723 17.4412C31.5861 17.1951 32.2848 17.3106 32.7197 17.6883C33.1514 18.0634 33.3502 18.7209 33.2071 19.5832Z" fill="#E4509E" stroke="white"/>
<path d="M7.71173 6.76885C7.98507 7.73066 7.95559 8.97847 7.52235 10.2741L7.52234 10.2741C7.08829 11.5688 6.34684 12.6228 5.52092 13.2849C4.68947 13.9514 3.82848 14.1832 3.10941 13.9789C2.39891 13.7772 1.84372 13.1542 1.56983 12.1916C1.29629 11.2302 1.32571 9.98249 1.76 8.68588C2.19404 7.39106 2.93552 6.33701 3.76149 5.67489C4.59294 5.00838 5.45392 4.77662 6.173 4.98083C6.88322 5.18254 7.438 5.80571 7.71173 6.76885Z" fill="#E4509E" stroke="white"/>
<path d="M18.3802 5.88602L18.3802 5.88621C18.055 7.20873 17.4031 8.31691 16.6347 9.0416C15.8613 9.77098 15.0225 10.0702 14.2889 9.92324C13.5636 9.77794 12.9589 9.19974 12.6069 8.26117C12.2553 7.324 12.1823 6.07839 12.5077 4.75393C12.8339 3.42923 13.4864 2.32062 14.255 1.59601C15.0286 0.866708 15.8674 0.567869 16.6011 0.71485C17.3264 0.860147 17.931 1.43831 18.2828 2.37704C18.6341 3.31439 18.7066 4.56049 18.3802 5.88602Z" fill="#E4509E" stroke="white"/>
<path d="M28.5436 8.73071C28.2322 10.2208 27.5651 11.4688 26.764 12.2862C25.9581 13.1084 25.0724 13.448 24.2847 13.2897C23.4986 13.1307 22.8236 12.4781 22.4142 11.4133C22.0069 10.354 21.8945 8.94989 22.2059 7.45958C22.5172 5.97061 23.1843 4.72316 23.9855 3.90596C24.7914 3.08389 25.6773 2.74425 26.4651 2.90269C27.251 3.06076 27.9259 3.71264 28.3353 4.77722C28.7426 5.83629 28.855 7.24036 28.5436 8.73071Z" fill="#E4509E" stroke="white"/>
</g>
<defs>
<clipPath id="clip0_185_16">
<rect width="34" height="37" fill="white" transform="matrix(-1 0 0 -1 34 37)"/>
</clipPath>
</defs>
</svg>
