<svg width="18" height="20" viewBox="0 0 18 20" fill="none" xmlns="http://www.w3.org/2000/svg">
<g clip-path="url(#clip0_184_8)">
<path fill-rule="evenodd" clip-rule="evenodd" d="M5.378 7.94798C5.378 7.94798 5.42992 6.63353 5.22223 5.76763C5.01454 4.90289 4.28993 5.07515 4.73877 3.03468C5.18762 0.99422 6.37954 -0.0439301 7.36377 0.128324C8.348 0.301735 8.29608 1.02775 8.57185 2.20462C8.84762 3.38035 9.71185 3.69249 10.4711 3.20809C11.2303 2.7237 11.9388 2.13526 12.8884 2.56763C13.838 3 13.268 4.59191 14.0976 5.11098C14.9261 5.63006 15.4015 5.09364 16.4376 4.85202C17.4738 4.61041 18.173 5.82081 17.8961 7.4474C17.6203 9.07399 17.3434 10.1283 16.3765 10.3711C15.4095 10.6139 15.3922 10.3283 14.1322 10.9595C12.8722 11.5908 12.0426 13.1561 10.2818 12.9145C8.52108 12.6728 9.10839 11.8208 7.77339 11.4659C6.43954 11.111 6.36223 11.4613 5.80954 10.9595C5.25685 10.4566 5.378 7.94798 5.378 7.94798Z" fill="#E4509E"/>
<path fill-rule="evenodd" clip-rule="evenodd" d="M3.77298 6.94454C3.12914 6.37344 1.87491 6.73876 0.972599 7.75957C0.0702911 8.78153 -0.139709 10.0717 0.504137 10.6428C1.14798 11.2139 2.40221 10.8486 3.30452 9.82777C4.20683 8.80696 4.41683 7.51679 3.77298 6.94454Z" fill="#E4509E"/>
<path fill-rule="evenodd" clip-rule="evenodd" d="M16.4262 12.1838C15.4454 11.8994 14.2546 12.874 13.7666 14.3607C13.2796 15.8474 13.6789 17.2833 14.6596 17.5677C15.6404 17.852 16.8312 16.8775 17.3193 15.3908C17.8073 13.9029 17.4069 12.4682 16.4262 12.1838Z" fill="#E4509E"/>
<path fill-rule="evenodd" clip-rule="evenodd" d="M10.4873 14.3711C11.4877 14.5757 12.0012 15.9746 11.6354 17.4948C11.2685 19.0162 10.1596 20.0833 9.15925 19.8786C8.15887 19.674 7.6454 18.2752 8.01233 16.7538C8.3781 15.2347 9.48694 14.1665 10.4873 14.3711Z" fill="#E4509E"/>
<path fill-rule="evenodd" clip-rule="evenodd" d="M5.19584 12.5514C4.12622 12.3318 2.97699 13.5283 2.62968 15.2254C2.28238 16.9225 2.86738 18.4763 3.93699 18.696C5.00661 18.9156 6.15584 17.7191 6.50314 16.0231C6.85045 14.326 6.26545 12.7723 5.19584 12.5514Z" fill="#E4509E"/>
</g>
<defs>
<clipPath id="clip0_184_8">
<rect width="18" height="20" fill="white"/>
</clipPath>
</defs>
</svg>
