<svg width="21" height="21" viewBox="0 0 21 21" fill="none" xmlns="http://www.w3.org/2000/svg">
<path d="M16.6795 3.01118L14.867 4.80236C17.0295 6.09942 18.4795 8.43413 18.4795 11.1147C18.4795 13.0804 17.6893 14.9656 16.2828 16.3556C14.8763 17.7456 12.9686 18.5265 10.9795 18.5265C8.99037 18.5265 7.08271 17.7456 5.67619 16.3556C4.26967 14.9656 3.47949 13.0804 3.47949 11.1147C3.47949 8.43413 4.92949 6.09942 7.07949 4.79001L5.27949 3.01118C2.67949 4.79001 0.979492 7.75471 0.979492 11.1147C0.979492 13.7357 2.03306 16.2493 3.90842 18.1026C5.78379 19.9559 8.32733 20.9971 10.9795 20.9971C13.6317 20.9971 16.1752 19.9559 18.0506 18.1026C19.9259 16.2493 20.9795 13.7357 20.9795 11.1147C20.9795 7.75471 19.2795 4.79001 16.6795 3.01118ZM12.2295 -0.0029335H9.72949V12.35H12.2295" fill="#D8428C"/>
</svg>
