<?xml version="1.0" standalone="no"?>
<!DOCTYPE svg PUBLIC "-//W3C//DTD SVG 20010904//EN"
 "http://www.w3.org/TR/2001/REC-SVG-20010904/DTD/svg10.dtd">
<svg version="1.0" xmlns="http://www.w3.org/2000/svg"
 width="512.000000pt" height="512.000000pt" viewBox="0 0 512.000000 512.000000"
 preserveAspectRatio="xMidYMid meet">

<g transform="translate(0.000000,512.000000) scale(0.100000,-0.100000)"
fill="#000000" stroke="none">
<path d="M2426 4936 c-24 -24 -26 -31 -26 -124 l0 -99 -76 -6 c-117 -10 -313
-53 -447 -98 -555 -185 -1020 -598 -1266 -1121 -27 -57 -56 -122 -65 -145
l-16 -43 33 -13 c59 -25 106 -38 115 -33 5 3 17 27 27 53 32 85 121 256 182
348 206 312 479 549 816 710 223 106 432 163 682 186 159 15 175 26 175 114
l0 55 208 -156 c114 -85 207 -159 207 -164 0 -5 -93 -79 -207 -164 l-208 -156
0 51 c0 43 -5 55 -30 80 -29 30 -31 30 -102 24 -560 -48 -1052 -362 -1330
-849 -58 -102 -132 -276 -149 -353 -7 -29 -15 -53 -18 -53 -3 0 -40 45 -81 99
-84 112 -114 132 -160 110 -19 -9 -116 -130 -280 -348 -264 -353 -270 -364
-231 -412 17 -22 29 -24 122 -29 l104 -5 13 -114 c16 -137 66 -339 117 -476
160 -428 455 -797 835 -1048 154 -102 434 -238 450 -220 16 19 52 135 44 142
-5 4 -45 22 -89 40 -475 199 -871 601 -1066 1080 -80 198 -128 405 -145 625
-9 115 -26 136 -109 136 l-55 0 155 208 c86 114 159 208 163 209 6 2 302 -388
310 -408 2 -5 -17 -9 -43 -9 -38 0 -52 -5 -76 -29 -34 -34 -34 -41 -14 -193
36 -273 138 -530 302 -761 78 -111 277 -307 393 -389 122 -87 297 -175 430
-218 58 -18 109 -37 113 -40 5 -4 -37 -40 -92 -81 -103 -76 -128 -109 -117
-154 5 -19 96 -92 346 -280 361 -270 371 -276 421 -236 22 17 24 29 29 123 l5
103 35 3 c135 10 321 49 475 99 582 188 1073 640 1314 1208 45 107 45 103 -28
131 -35 13 -67 24 -72 24 -5 0 -17 -19 -26 -43 -9 -23 -45 -98 -79 -167 -315
-631 -936 -1045 -1642 -1096 -120 -9 -135 -20 -142 -102 l-5 -59 -205 152
c-112 84 -205 157 -207 162 -2 7 385 302 408 311 5 2 9 -19 9 -47 0 -91 38
-109 192 -91 278 32 542 134 780 300 118 82 313 277 400 400 84 118 177 302
221 437 18 56 35 105 38 107 3 3 40 -42 83 -99 80 -108 101 -123 151 -111 19
5 93 97 280 346 276 368 280 376 230 425 -22 23 -31 25 -123 25 l-99 0 -6 76
c-4 42 -18 132 -32 199 -140 691 -617 1274 -1269 1551 -55 24 -104 40 -107 36
-13 -15 -51 -131 -45 -140 3 -5 27 -17 53 -27 85 -32 256 -121 348 -182 516
-341 839 -880 897 -1498 15 -157 21 -168 107 -175 l60 -5 -155 -205 c-86 -113
-159 -205 -164 -205 -5 0 -79 93 -164 208 l-156 207 51 0 c98 0 116 30 99 175
-73 658 -513 1208 -1132 1415 -49 17 -96 30 -104 30 -29 0 -12 17 91 94 107
79 123 101 111 150 -8 34 -669 529 -713 534 -24 3 -38 -2 -57 -22z m-26 -956
c0 -83 2 -93 25 -115 44 -45 68 -35 230 86 l148 111 111 -26 c188 -45 366
-126 536 -245 93 -65 286 -261 355 -360 118 -169 212 -392 249 -590 25 -129
29 -121 -64 -121 -43 0 -90 -5 -104 -11 -30 -14 -50 -59 -41 -90 4 -13 55 -86
112 -162 l105 -138 -16 -79 c-111 -548 -555 -1012 -1101 -1150 -60 -16 -136
-31 -167 -35 l-58 -7 0 91 c0 99 -11 123 -64 137 -32 8 -46 -1 -204 -119
l-133 -100 -77 16 c-127 28 -230 64 -357 127 -370 184 -647 507 -774 902 -27
85 -61 244 -61 284 0 11 21 14 90 14 83 0 93 2 115 25 46 45 38 66 -107 257
l-90 120 25 109 c140 585 615 1036 1207 1144 120 21 110 28 110 -75z"/>
<path d="M2405 3590 c-141 -22 -327 -97 -445 -181 -74 -52 -192 -170 -245
-244 -91 -128 -163 -306 -184 -459 -78 -560 306 -1080 864 -1171 563 -92 1098
295 1190 860 77 471 -181 935 -624 1124 -117 50 -223 72 -366 76 -71 2 -157 0
-190 -5z m310 -165 c433 -76 747 -472 722 -910 -13 -226 -102 -424 -261 -580
-343 -339 -888 -338 -1231 0 -350 346 -353 898 -5 1245 206 206 487 295 775
245z"/>
<path d="M2240 3040 l0 -80 320 0 320 0 0 80 0 80 -320 0 -320 0 0 -80z"/>
<path d="M2523 2787 c-24 -13 -269 -335 -261 -343 3 -2 31 -24 64 -48 l58 -44
46 61 45 61 3 -237 2 -237 80 0 80 0 2 237 3 237 45 -61 46 -61 58 44 c33 24
61 46 64 48 9 9 -241 334 -265 345 -30 14 -42 13 -70 -2z"/>
</g>
</svg>
